# xmcd CD database file
#
# Track frame offsets:
#	150
#	10173
#	29265
#	42873
#	76923
#	101979
#	125318
#	152570
#	171178
#	190207
#	211703
#
# Disc length: 2921 seconds
#
# Revision: 0
# Processed by: cddbd v1.5.2PL0 Copyright (c) Steve Scherf et al.
# Submitted via: CDex 1.51
#
DISCID=810b670b
DTITLE=Ornette Coleman - JazzBaltica 2008
DYEAR=2008
DGENRE=Jazz
TTITLE0=Ornette Coleman - Following the Sound
TTITLE1=Ornette Coleman - Sleep Talking
TTITLE2=Ornette Coleman - Jordan
TTITLE3=Ornette Coleman - Nine Eleven
TTITLE4=Ornette Coleman - Bach
TTITLE5=Ornette Coleman - Those Who Know Before It Happe
TTITLE6=Ornette Coleman - Waiting For You
TTITLE7=Ornette Coleman - Dancing In Your Head
TTITLE8=Ornette Coleman - Song World
TTITLE9=Ornette Coleman - Message
TTITLE10=Ornette Coleman - Lonely Woman (Excerpt)
EXTD=YEAR: 2008
EXTT0=
EXTT1=
EXTT2=
EXTT3=
EXTT4=
EXTT5=
EXTT6=
EXTT7=
EXTT8=
EXTT9=
EXTT10=
PLAYORDER=
